# Blender v2.79 (sub 0) OBJ File: 'InstagramIcon.blend'
# www.blender.org
mtllib InstagramIcon.mtl
o Instagram_Icon_Cube.001
v -2.196014 -4.191576 1.000000
v -1.631256 -3.439191 1.000000
v 1.997629 -4.191576 1.000000
v 1.480939 -3.439191 1.000000
v 4.068246 -2.145224 1.000000
v 3.249504 -1.674924 1.000000
v 4.067418 2.021341 1.000000
v 3.249504 1.608290 1.000000
v 1.871698 4.037605 1.000000
v 1.674032 3.176801 1.000000
v -2.178895 4.037604 1.000000
v -1.737507 3.176801 1.000000
v -4.144375 2.029688 1.000000
v -3.381865 1.518692 1.000000
v -4.144375 -2.149848 1.000000
v -3.381865 -1.674391 1.000000
v 0.438877 0.891569 1.000000
v 1.135614 0.200639 1.000000
v 1.139720 -0.780590 1.000000
v 0.448790 -1.477327 1.000000
v -0.532439 -1.481433 1.000000
v -1.229176 -0.790502 1.000000
v -1.233281 0.190726 1.000000
v -0.542352 0.887463 1.000000
v -1.480983 -2.950252 1.000000
v -0.635619 -1.911141 1.000000
v 1.330373 -2.950252 1.000000
v 0.548167 -1.911141 1.000000
v 2.761610 -1.509030 1.000000
v 1.559151 -0.901702 1.000000
v 2.761610 1.596370 1.000000
v 1.559151 0.313773 1.000000
v -2.913178 -1.521186 1.000000
v -1.674193 -0.862352 1.000000
v -2.913178 1.481654 1.000000
v -1.674193 0.291807 1.000000
v -1.597192 2.760061 1.000000
v -0.630405 1.330038 1.000000
v 1.584378 2.760061 1.000000
v 0.536363 1.330038 1.000000
v 1.959971 0.741305 1.000000
v 2.360791 1.168837 1.000000
v 1.235039 2.283386 1.000000
v 0.885701 1.806712 1.000000
v 2.369200 1.984267 1.000000
v 1.976789 2.372164 1.000000
v 1.218222 0.652528 1.000000
v 0.877292 0.991283 1.000000
v 1.524448 1.855476 1.000000
v 1.243791 1.451576 1.000000
v 2.049201 1.574062 1.000000
v 1.601881 1.096441 1.000000
v 2.172994 2.178215 1.000000
v 1.780583 2.566113 1.000000
v 2.565405 1.790318 1.000000
v 2.561200 1.382603 1.000000
v 2.160381 0.955071 1.000000
v 1.759561 0.527539 1.000000
v 1.388686 0.483150 1.000000
v 1.047757 0.821905 1.000000
v 0.706827 1.160661 1.000000
v 0.711032 1.568375 1.000000
v 1.060370 2.045049 1.000000
v 1.409709 2.521723 1.000000
v 1.422665 2.097628 1.000000
v 1.651389 1.983088 1.000000
v 1.524448 1.574062 1.000000
v 1.064746 1.629144 1.000000
v 1.060542 1.221430 1.000000
v 1.422836 1.274009 1.000000
v 1.410051 0.874484 1.000000
v 1.780926 0.918873 1.000000
v 1.929060 1.469300 1.000000
v 2.049201 1.855476 1.000000
v 2.173166 1.354596 1.000000
v 1.584806 0.701012 1.000000
v 1.977046 1.136734 1.000000
v 2.369285 1.572457 1.000000
v 1.929060 1.983088 1.000000
v 1.651389 1.469300 1.000000
v 1.235296 1.047957 1.000000
v 1.243705 1.863386 1.000000
v 1.601624 2.331870 1.000000
v 0.885787 1.394902 1.000000
v -2.196014 -4.191576 -0.311133
v -1.631256 -3.439191 -0.311133
v 1.480939 -3.439191 -0.311133
v 1.997629 -4.191576 -0.311133
v 3.249504 -1.674924 -0.311133
v 4.068246 -2.145224 -0.311133
v 3.249504 1.608290 -0.311133
v 4.067418 2.021341 -0.311133
v 1.674032 3.176801 -0.311133
v 1.871698 4.037605 -0.311133
v -1.737507 3.176801 -0.311133
v -2.178895 4.037604 -0.311133
v -3.381865 1.518692 -0.311133
v -4.144375 2.029688 -0.311133
v -3.381865 -1.674391 -0.311133
v -4.144375 -2.149848 -0.311133
v 1.135614 0.200639 -0.311133
v 0.438877 0.891569 -0.311133
v 1.139720 -0.780590 -0.311133
v 0.448790 -1.477327 -0.311133
v -0.532439 -1.481433 -0.311133
v -1.229175 -0.790502 -0.311133
v -1.233281 0.190726 -0.311133
v -0.542352 0.887463 -0.311133
v -1.480983 -2.950252 -0.311133
v -0.635619 -1.911141 -0.311133
v 0.548167 -1.911141 -0.311133
v 1.330373 -2.950252 -0.311133
v 1.559151 -0.901702 -0.311133
v 2.761610 -1.509030 -0.311133
v 2.761610 1.596370 -0.311133
v 1.559151 0.313773 -0.311133
v -2.913178 -1.521186 -0.311133
v -1.674193 -0.862352 -0.311133
v -2.913178 1.481654 -0.311133
v -1.674193 0.291807 -0.311133
v -1.597192 2.760061 -0.311133
v -0.630405 1.330038 -0.311133
v 0.536363 1.330038 -0.311133
v 1.584378 2.760061 -0.311133
v 0.877292 0.991283 -0.311133
v 1.651389 1.983088 -0.311133
v 1.524449 1.855476 -0.311133
v 1.524449 1.574062 -0.311133
v 1.218222 0.652528 -0.311133
v 2.049201 1.855476 -0.311133
v 2.049201 1.574062 -0.311133
v 1.929060 1.469300 -0.311133
v 1.976789 2.372164 -0.311133
v 2.369200 1.984267 -0.311133
v 1.388687 0.483150 -0.311133
v 2.565405 1.790318 -0.311133
v 2.172994 2.178215 -0.311133
v 1.929060 1.983088 -0.311133
v 1.651389 1.469300 -0.311133
v 1.047757 0.821905 -0.311133
v 1.780584 2.566113 -0.311133
v 0.706827 1.160661 -0.311133
v 2.761610 1.596370 -0.311133
v 1.559151 0.313773 -0.311133
v 1.584378 2.760061 -0.311133
v 0.536363 1.330038 -0.311133
v 1.959971 0.741305 -0.311133
v 2.360791 1.168837 -0.311133
v 1.235039 2.283386 -0.311133
v 0.885701 1.806712 -0.311133
v 2.369200 1.984267 -0.311133
v 1.976789 2.372164 -0.311133
v 1.218222 0.652528 -0.311133
v 0.877292 0.991283 -0.311133
v 1.524448 1.855476 -0.311133
v 1.243791 1.451576 -0.311133
v 2.049201 1.574062 -0.311133
v 1.601881 1.096441 -0.311133
v 2.172994 2.178215 -0.311133
v 1.780583 2.566113 -0.311133
v 2.565405 1.790318 -0.311133
v 2.561200 1.382603 -0.311133
v 2.160381 0.955071 -0.311133
v 1.759561 0.527539 -0.311133
v 1.388686 0.483150 -0.311133
v 1.047757 0.821905 -0.311133
v 0.706827 1.160661 -0.311133
v 0.711032 1.568375 -0.311133
v 1.060370 2.045049 -0.311133
v 1.409709 2.521723 -0.311133
v 1.422665 2.097628 -0.311133
v 1.651389 1.983088 -0.311133
v 1.524448 1.574062 -0.311133
v 1.064746 1.629144 -0.311133
v 1.060542 1.221430 -0.311133
v 1.422836 1.274009 -0.311133
v 1.410051 0.874484 -0.311133
v 1.780926 0.918873 -0.311133
v 1.929060 1.469300 -0.311133
v 2.049201 1.855476 -0.311133
v 2.173166 1.354596 -0.311133
v 1.584806 0.701012 -0.311133
v 1.977046 1.136734 -0.311133
v 2.369285 1.572457 -0.311133
v 1.929060 1.983088 -0.311133
v 1.651389 1.469300 -0.311133
v 1.235296 1.047957 -0.311133
v 1.243705 1.863386 -0.311133
v 1.601624 2.331870 -0.311133
v 0.885787 1.394902 -0.311133
vn -0.0000 -0.0000 1.0000
vn -0.7048 -0.7094 -0.0000
vn 0.0000 1.0000 -0.0000
vn 0.7101 -0.7041 0.0000
vn -0.0000 -1.0000 -0.0000
vn 0.0042 -1.0000 0.0000
vn -0.7041 -0.7101 -0.0000
vn -1.0000 -0.0042 -0.0000
vn -0.7101 0.7041 -0.0000
vn -0.6572 0.7537 -0.0000
vn -0.0042 1.0000 -0.0000
vn 0.7029 -0.7113 0.0000
vn -0.7062 0.7080 0.0000
vn 0.7090 -0.7052 0.0000
vn 1.0000 0.0002 0.0000
vn -1.0000 0.0000 0.0000
vn 0.7096 -0.7046 0.0000
vn -0.7055 -0.7087 -0.0000
vn -0.7066 0.7076 0.0000
vn 0.6764 0.7366 0.0000
vn 1.0000 0.0000 0.0000
vn 0.7030 0.7112 0.0000
vn -0.7063 -0.7079 -0.0000
vn -0.7146 0.6995 0.0000
vn 0.7106 0.7036 0.0000
vn 0.7100 -0.7042 -0.0000
vn -0.7281 -0.6855 -0.0000
vn -0.7235 -0.6904 0.0000
vn 0.7052 -0.7090 0.0000
vn 0.7100 0.7042 0.0000
vn -0.6968 0.7173 0.0000
vn 0.7041 0.7101 0.0000
vn 0.6365 0.7713 0.0000
vn 1.0000 0.0042 0.0000
vn 0.0000 0.0000 -1.0000
usemtl None
s off
f 4//1 3//1 5//1 6//1
f 3//1 4//1 2//1 1//1
f 6//1 5//1 7//1 8//1
f 10//1 9//1 11//1 12//1
f 8//1 7//1 9//1 10//1
f 12//1 11//1 13//1 14//1
f 16//1 15//1 1//1 2//1
f 14//1 13//1 15//1 16//1
f 18//1 17//1 24//1 23//1 22//1 21//1 20//1 19//1
f 28//1 27//1 29//1 30//1
f 27//1 28//1 26//1 25//1
f 30//1 29//1 31//1 56//1 42//1 57//1 41//1 58//1 32//1
f 25//1 26//1 34//1 33//1
f 33//1 34//1 36//1 35//1
f 35//1 36//1 38//1 37//1
f 37//1 38//1 40//1 62//1 44//1 63//1 43//1 64//1 39//1
f 66//1 79//1 53//1 46//1
f 54//1 83//1 66//1 46//1
f 39//1 64//1 83//1 54//1
f 74//1 45//1 53//1 79//1
f 55//1 45//1 74//1 78//1
f 31//1 55//1 78//1 56//1
f 74//1 51//1 75//1 78//1
f 56//1 78//1 75//1 42//1
f 51//1 73//1 77//1 75//1
f 42//1 75//1 77//1 57//1
f 73//1 52//1 72//1 77//1
f 57//1 77//1 72//1 41//1
f 52//1 71//1 76//1 72//1
f 41//1 72//1 76//1 58//1
f 59//1 32//1 58//1 76//1
f 71//1 47//1 59//1 76//1
f 47//1 71//1 81//1 60//1
f 69//1 48//1 60//1 81//1
f 48//1 69//1 84//1 61//1
f 40//1 61//1 84//1 62//1
f 44//1 62//1 84//1 68//1
f 44//1 68//1 82//1 63//1
f 64//1 43//1 65//1 83//1
f 43//1 63//1 82//1 65//1
f 66//1 83//1 65//1 49//1
f 65//1 82//1 67//1 49//1
f 50//1 67//1 82//1 68//1
f 50//1 68//1 84//1 69//1
f 50//1 69//1 81//1 70//1
f 52//1 70//1 81//1 71//1
f 52//1 73//1 80//1 70//1
f 50//1 70//1 80//1 67//1
f 61//2 142//2 125//2 48//2
f 73//3 132//3 139//3 80//3
f 39//3 124//3 121//3 37//3
f 20//4 104//4 103//4 19//4
f 40//2 123//2 142//2 61//2
f 38//5 122//5 123//5 40//5
f 21//6 105//6 104//6 20//6
f 22//7 106//7 105//7 21//7
f 1//5 85//5 88//5 3//5
f 23//8 107//8 106//8 22//8
f 4//3 87//3 86//3 2//3
f 24//9 108//9 107//9 23//9
f 51//10 131//10 132//10 73//10
f 17//11 102//11 108//11 24//11
f 3//12 88//12 90//12 5//12
f 6//13 89//13 87//13 4//13
f 49//14 127//14 126//14 66//14
f 25//5 109//5 112//5 27//5
f 5//15 90//15 92//15 7//15
f 28//3 111//3 110//3 26//3
f 8//16 91//16 89//16 6//16
f 74//16 130//16 131//16 51//16
f 27//17 112//17 114//17 29//17
f 10//18 93//18 91//18 8//18
f 30//19 113//19 111//19 28//19
f 7//20 92//20 94//20 9//20
f 32//16 116//16 113//16 30//16
f 9//3 94//3 96//3 11//3
f 29//21 114//21 115//21 31//21
f 12//5 95//5 93//5 10//5
f 53//22 137//22 133//22 46//22
f 46//22 133//22 141//22 54//22
f 33//23 117//23 109//23 25//23
f 11//24 96//24 98//24 13//24
f 54//22 141//22 124//22 39//22
f 26//25 110//25 118//25 34//25
f 14//26 97//26 95//26 12//26
f 45//22 134//22 137//22 53//22
f 55//22 136//22 134//22 45//22
f 34//21 118//21 120//21 36//21
f 16//21 99//21 97//21 14//21
f 31//22 115//22 136//22 55//22
f 66//5 126//5 138//5 79//5
f 35//16 119//16 117//16 33//16
f 13//16 98//16 100//16 15//16
f 59//2 135//2 116//2 32//2
f 79//27 138//27 130//27 74//27
f 15//28 100//28 85//28 1//28
f 47//2 129//2 135//2 59//2
f 36//29 120//29 122//29 38//29
f 2//30 86//30 99//30 16//30
f 60//2 140//2 129//2 47//2
f 37//31 121//31 119//31 35//31
f 18//32 101//32 102//32 17//32
f 48//2 125//2 140//2 60//2
f 80//33 139//33 128//33 67//33
f 67//21 128//21 127//21 49//21
f 19//34 103//34 101//34 18//34
f 94//35 93//35 95//35 96//35
f 98//35 96//35 95//35 97//35
f 99//35 100//35 98//35 97//35
f 100//35 99//35 86//35 85//35
f 85//35 86//35 87//35 88//35
f 88//35 87//35 89//35 90//35
f 90//35 89//35 91//35 92//35
f 93//35 94//35 92//35 91//35
f 124//35 123//35 122//35 121//35
f 122//35 120//35 119//35 121//35
f 118//35 117//35 119//35 120//35
f 101//35 103//35 104//35 105//35 106//35 107//35 108//35 102//35
f 117//35 118//35 110//35 109//35
f 109//35 110//35 111//35 112//35
f 112//35 111//35 113//35 114//35
f 116//35 115//35 114//35 113//35
f 172//35 152//35 159//35 185//35
f 160//35 152//35 172//35 189//35
f 145//35 160//35 189//35 170//35
f 180//35 185//35 159//35 151//35
f 161//35 184//35 180//35 151//35
f 143//35 162//35 184//35 161//35
f 180//35 184//35 181//35 157//35
f 162//35 148//35 181//35 184//35
f 157//35 181//35 183//35 179//35
f 148//35 163//35 183//35 181//35
f 179//35 183//35 178//35 158//35
f 163//35 147//35 178//35 183//35
f 158//35 178//35 182//35 177//35
f 147//35 164//35 182//35 178//35
f 165//35 182//35 164//35 144//35
f 177//35 182//35 165//35 153//35
f 153//35 166//35 187//35 177//35
f 175//35 187//35 166//35 154//35
f 154//35 167//35 190//35 175//35
f 146//35 168//35 190//35 167//35
f 150//35 174//35 190//35 168//35
f 150//35 169//35 188//35 174//35
f 170//35 189//35 171//35 149//35
f 149//35 171//35 188//35 169//35
f 172//35 155//35 171//35 189//35
f 171//35 155//35 173//35 188//35
f 156//35 174//35 188//35 173//35
f 156//35 175//35 190//35 174//35
f 156//35 176//35 187//35 175//35
f 158//35 177//35 187//35 176//35
f 158//35 176//35 186//35 179//35
f 156//35 173//35 186//35 176//35
