# Blender v2.79 (sub 0) OBJ File: 'coin.blend'
# www.blender.org
mtllib slot.mtl
o Cube
v -1.322924 -0.266637 1.022314
v -1.322924 0.266637 1.022314
v -1.322924 -0.266637 -0.977686
v -1.322924 0.266637 -0.977686
v 1.298851 -0.266637 1.022314
v 1.298851 0.061465 1.022314
v 1.298851 -0.266637 -0.977686
v 1.298851 0.061465 -0.977686
v -1.322924 -0.266637 0.218772
v -1.322924 0.266637 0.218772
v 1.298851 -0.266637 0.218772
v 1.298851 0.061465 0.218772
v -1.322924 0.266637 -0.188696
v 1.298851 -0.266637 -0.188696
v -1.322924 -0.266637 -0.188696
v 1.298851 0.061465 -0.188696
v -1.322924 0.266637 -0.254090
v 1.298851 -0.266637 -0.254090
v -1.322924 -0.266637 -0.254090
v 1.298851 0.061465 -0.254090
v -1.322924 -0.266637 0.283924
v 1.298851 0.061465 0.283924
v -1.322924 0.266637 0.283924
v 1.298851 -0.266637 0.283924
v -1.066025 -0.266637 -0.977686
v -1.066025 0.266637 -0.977686
v -1.066025 -0.266637 1.022314
v -1.066025 0.266637 1.022314
v -1.066025 0.266637 0.218772
v -1.066025 -0.266637 0.218772
v -1.066025 -0.266637 -0.188696
v -1.066025 0.266637 -0.188696
v -1.066025 0.266637 -0.254090
v -1.066025 -0.266637 -0.254090
v -1.066025 0.266637 0.283924
v -1.066025 -0.266637 0.283924
v 1.024926 0.148767 -0.977686
v 1.024926 -0.266637 1.022314
v 1.024926 0.266637 0.218772
v 1.024926 0.266637 -0.188696
v 1.024926 0.148767 -0.254090
v 1.024926 0.148767 0.283924
v 1.024926 -0.266637 -0.977686
v 1.024926 0.148767 1.022314
v 1.024926 -0.266637 0.218772
v 1.024926 -0.266637 -0.188696
v 1.024926 -0.266637 -0.254090
v 1.024926 -0.266637 0.283924
v -1.322924 0.420144 0.283924
v -1.322924 0.420144 0.218772
v 1.298851 0.420144 -0.188696
v 1.298851 0.420144 0.218772
v 1.024926 0.420144 0.218772
v -1.322924 0.420144 -0.188696
v 1.298851 0.420144 -0.254090
v 1.024926 0.420144 -0.188696
v -1.322924 0.420144 -0.254090
v 1.024926 0.420144 -0.254090
v 1.298851 0.420144 0.283924
v 1.024926 0.420144 0.283924
v -1.066025 0.420144 0.218772
v -1.066025 0.420144 -0.188696
v -1.066025 0.420144 -0.254090
v -1.066025 0.420144 0.283924
vn -1.0000 0.0000 0.0000
vn 0.0000 0.0000 -1.0000
vn 1.0000 0.0000 0.0000
vn 0.0000 0.0000 1.0000
vn 0.0000 -1.0000 0.0000
vn 0.0000 1.0000 0.0000
vn 0.0563 0.9984 0.0000
vn 0.3037 0.9528 0.0000
usemtl BLACK
s off
f 19//1 17//1 4//1 3//1
f 43//2 37//2 8//2 7//2
f 24//3 22//3 6//3 5//3
f 27//4 28//4 2//4 1//4
f 48//5 24//5 5//5 38//5
f 35//6 23//6 2//6 28//6
f 35//4 42//4 60//4 64//4
f 46//5 14//5 11//5 45//5
f 14//3 16//3 12//3 11//3
f 21//1 23//1 10//1 9//1
f 18//3 20//3 16//3 14//3
f 47//5 18//5 14//5 46//5
f 17//1 13//1 54//1 57//1
f 9//1 10//1 13//1 15//1
f 26//6 4//6 17//6 33//6
f 43//5 7//5 18//5 47//5
f 7//3 8//3 20//3 18//3
f 15//1 13//1 17//1 19//1
f 1//1 2//1 23//1 21//1
f 10//1 23//1 49//1 50//1
f 45//5 11//5 24//5 48//5
f 11//3 12//3 22//3 24//3
f 9//5 30//5 36//5 21//5
f 41//2 33//2 63//2 58//2
f 3//5 25//5 34//5 19//5
f 37//7 26//7 33//7 41//7
f 13//1 10//1 50//1 54//1
f 19//5 34//5 31//5 15//5
f 15//5 31//5 30//5 9//5
f 40//6 32//6 29//6 39//6
f 42//7 35//7 28//7 44//7
f 21//5 36//5 27//5 1//5
f 38//4 44//4 28//4 27//4
f 3//2 4//2 26//2 25//2
f 5//4 6//4 44//4 38//4
f 22//8 42//8 44//8 6//8
f 32//4 40//4 56//4 62//4
f 42//4 22//4 59//4 60//4
f 8//8 37//8 41//8 20//8
f 29//3 32//3 62//3 61//3
f 30//5 45//5 48//5 36//5
f 25//5 43//5 47//5 34//5
f 34//5 47//5 46//5 31//5
f 31//5 46//5 45//5 30//5
f 36//5 48//5 38//5 27//5
f 25//2 26//2 37//2 43//2
f 62//6 54//6 50//6 61//6
f 63//6 57//6 54//6 62//6
f 61//6 50//6 49//6 64//6
f 53//6 61//6 64//6 60//6
f 58//6 63//6 62//6 56//6
f 51//6 56//6 53//6 52//6
f 55//6 58//6 56//6 51//6
f 52//6 53//6 60//6 59//6
f 22//3 12//3 52//3 59//3
f 12//3 16//3 51//3 52//3
f 33//2 17//2 57//2 63//2
f 40//1 39//1 53//1 56//1
f 16//3 20//3 55//3 51//3
f 23//4 35//4 64//4 49//4
f 20//2 41//2 58//2 55//2
f 39//2 29//2 61//2 53//2
